<mxfile host="65bd71144e">
    <diagram id="iQ8ktGT1xeuBXVUgiFml" name="Page-1">
        <mxGraphModel dx="1348" dy="1375" grid="1" gridSize="10" guides="1" tooltips="1" connect="1" arrows="1" fold="1" page="1" pageScale="1" pageWidth="827" pageHeight="1169" background="#ffffff" math="0" shadow="0">
            <root>
                <mxCell id="0"/>
                <mxCell id="1" parent="0"/>
                <mxCell id="2" value="graph TD&#10;A[Initalise] --&gt;B(Request Data)&#10;B --&gt;C(Validate data)&#10;C --&gt;E(Store Data on ipfs)&#10;E --&gt;F(Retrieve_data)&#10;F--&gt;H(Annotate_data)&#10;H--&gt;I(Train Model)&#10;I--&gt;LK(Share weights &amp; select best model)&#10;LK--&gt;LA(Validate Model)&#10;LA--&gt;LB(Make Prediction)&#10;LB--&gt;LC(Build Safe Transaction)&#10;LC--&gt;LE(Transaction ABCI)&#10;LE--&gt;B" style="shadow=0;dashed=0;align=left;strokeWidth=1;shape=mxgraph.mermaid.abstract.mermaid;labelBackgroundColor=#ffffff;noLabel=1;theme=default;" vertex="1" parent="1">
                    <mxGeometry x="90" y="170" width="520" height="720" as="geometry"/>
                </mxCell>
            </root>
        </mxGraphModel>
    </diagram>
</mxfile>